<svg width="76" height="76" viewBox="0 0 76 76" fill="none" xmlns="http://www.w3.org/2000/svg">
<path fill-rule="evenodd" clip-rule="evenodd" d="M38.081 0.162109C59.0513 0.162109 76 17.1107 76 38.081C76 59.0513 59.0513 76 38.081 76C17.1107 76 0.162109 59.0513 0.162109 38.081C0.162109 17.1107 17.1107 0.162109 38.081 0.162109ZM30.8994 30.6122C33.1975 28.0268 36.932 27.165 40.6664 28.0268C46.1244 29.4631 49.2843 35.2084 47.848 40.3791L52.7315 43.2518L49.8589 48.1353L45.2626 45.2626C42.6773 47.848 38.9428 48.9971 35.2084 47.848C29.7504 46.4117 26.5904 40.9537 28.0268 35.4957L11.0782 25.7287L13.9508 20.8452L30.8994 30.6122ZM33.4848 36.6447C32.9103 39.2301 34.3466 41.8155 36.6447 42.39C39.2301 43.2518 41.8155 41.8155 42.39 39.2301C43.2518 36.6447 41.8155 34.0593 39.2301 33.4848C36.6447 32.9103 34.0593 34.3466 33.4848 36.6447ZM38.081 8.78005C54.1678 8.78005 67.382 21.707 67.382 38.081C67.382 54.1678 54.1678 67.382 38.081 67.382V62.2113C51.2952 62.2113 62.2113 51.2952 62.2113 38.081C62.2113 24.5796 51.2952 13.9508 38.081 13.9508V8.78005Z" fill="#AA21EA"/>
</svg>
