<svg width="20" height="20" viewBox="0 0 20 20" fill="none" xmlns="http://www.w3.org/2000/svg">
<path d="M17.5 0H2.5C1.12083 0 0 1.12064 0 2.49957V17.497C0 18.8751 1.12083 19.9966 2.5 19.9966H17.5C18.8783 19.9966 20 18.8751 20 17.497V2.49957C20 1.12064 18.8783 0 17.5 0Z" fill="#3B5999"/>
<path d="M13.75 9.99838V7.49884C13.75 6.80896 14.31 6.87395 15 6.87395H16.25V3.74951H13.75C11.6783 3.74951 10 5.42754 10 7.49884V9.99838H7.5V13.1228H10V19.9966H13.75V13.1228H15.625L16.875 9.99838H13.75Z" fill="white"/>
</svg>
