<svg width="20" height="20" viewBox="0 0 20 20" fill="none" xmlns="http://www.w3.org/2000/svg">
<path d="M10 19.9966C15.5228 19.9966 20 15.5202 20 9.99829C20 4.47639 15.5228 0 10 0C4.47715 0 0 4.47639 0 9.99829C0 15.5202 4.47715 19.9966 10 19.9966Z" fill="#273B7A"/>
<path d="M19.7748 12.1135L13.6607 6.00049L8.56329 6.40729L5.95947 8.78378L6.29361 13.9534L12.0827 19.7783C15.9229 18.9648 18.9485 15.9482 19.7748 12.1135Z" fill="#121149"/>
<path d="M10.2183 9.07857V10.9944H13.2151C12.7901 12.3658 11.5116 13.362 10.0003 13.362C8.14181 13.362 6.63513 11.8557 6.63513 9.99748C6.63505 8.13944 8.14165 6.63308 10.0002 6.63308C10.8687 6.63308 11.6578 6.96492 12.2548 7.505L13.661 5.99993C12.6964 5.11657 11.4114 4.57715 10.0002 4.57715C7.00595 4.57715 4.57861 7.0039 4.57861 9.99756C4.57861 12.9912 7.00595 15.418 10.0002 15.418C12.9945 15.418 15.4218 12.9912 15.4218 9.99756C15.4218 9.68395 15.3928 9.37742 15.3413 9.07857H10.2183Z" fill="#4285F4"/>
<path d="M10 6.63359C10.8686 6.63359 11.6577 6.96551 12.2547 7.5057L13.6608 6.00031C12.6963 5.11668 11.4113 4.57715 10 4.57715C7.92355 4.57715 6.12066 5.74496 5.20996 7.4591L6.86449 8.78414C7.35207 7.52672 8.57035 6.63359 10 6.63359Z" fill="#EA4335"/>
<path d="M6.6351 9.99904C6.6351 9.57021 6.71838 9.16166 6.86467 8.78451L5.21014 7.45947C4.8076 8.21717 4.57861 9.08123 4.57861 9.99908C4.57861 10.9212 4.80951 11.7891 5.21553 12.5493L6.86025 11.2015C6.71697 10.8275 6.6351 10.4233 6.6351 9.99904Z" fill="#FBBC05"/>
<path d="M11.8714 12.7931C11.3362 13.1522 10.6936 13.3635 10.0006 13.3635C8.56629 13.3635 7.34492 12.4646 6.86055 11.2007L5.21582 12.5485C6.1284 14.2569 7.92836 15.4198 10.0005 15.4198C11.3462 15.4198 12.5764 14.9285 13.5242 14.1168L11.8714 12.7931Z" fill="#34A853"/>
<path d="M15.4217 9.99779C15.4217 9.68412 15.3928 9.37752 15.3412 9.07861H10.2183V10.9948H13.215C12.9849 11.7376 12.5031 12.3685 11.871 12.7926L13.5238 14.1163C14.685 13.1219 15.4217 11.6463 15.4217 9.99779Z" fill="#4285F4"/>
</svg>
