<svg width="20" height="20" viewBox="0 0 20 20" fill="none" xmlns="http://www.w3.org/2000/svg">
<path d="M16.4227 19.6542C12.1452 20.1107 7.85477 20.1107 3.57727 19.6542C1.87164 19.4722 0.524445 18.1253 0.342407 16.4198C-0.114136 12.143 -0.114136 7.85342 0.342407 3.57666C0.524445 1.87132 1.87164 0.524355 3.57727 0.342349C7.85477 -0.114116 12.1451 -0.114116 16.4226 0.342349C18.1284 0.524355 19.4756 1.87132 19.6576 3.57666C20.1141 7.85342 20.1141 12.143 19.6576 16.4198C19.4756 18.1253 18.1285 19.4722 16.4227 19.6542Z" fill="url(#paint0_linear_23_93)"/>
<path d="M18.5699 4.29969C18.4085 2.78648 17.2131 1.5912 15.6995 1.42964C11.9037 1.02476 8.09661 1.02476 4.30083 1.42964C2.78731 1.5912 1.59178 2.78648 1.43019 4.29969C1.02522 8.09468 1.02522 11.901 1.43019 15.6958C1.59178 17.2092 2.78731 18.4044 4.30083 18.5659C8.09661 18.9709 11.9037 18.9709 15.6993 18.5659C17.213 18.4044 18.4085 17.2092 18.5699 15.6958C18.9751 11.901 18.9751 8.09468 18.5699 4.29969Z" fill="url(#paint1_linear_23_93)"/>
<path d="M0.299805 16.0049C0.313538 16.1431 0.327728 16.2814 0.342529 16.4196C0.524567 18.1252 1.87177 19.4724 3.57755 19.6545C7.85504 20.111 12.1454 20.111 16.4229 19.6545C18.1286 19.4724 19.4757 18.1252 19.6577 16.4196C19.6725 16.2814 19.6867 16.1431 19.7006 16.0049H0.299805Z" fill="url(#paint2_linear_23_93)"/>
<path d="M19.9959 9.29563L15.8445 5.14505C15.3792 5.41096 14.9692 5.55849 14.6604 5.64026C14.4867 5.68679 14.345 5.71212 14.243 5.726C13.7749 5.24619 13.1212 4.94824 12.3976 4.94824C10.974 4.94824 9.81967 6.10222 9.81967 7.52592C9.81967 7.57733 9.82105 7.62813 9.8244 7.67878C9.83127 7.80221 9.84699 7.92349 9.87125 8.04142C9.27692 8.03257 7.34516 7.87391 5.50281 6.2949C5.50266 6.2949 5.50266 6.29475 5.50266 6.29475H5.5025L4.63367 5.42591C4.63367 5.42591 3.61438 7.20462 5.11295 8.55433C5.17871 8.62772 5.25104 8.70018 5.33023 8.77143C5.33649 8.77845 5.34305 8.78531 5.3493 8.79233C5.15262 8.77906 4.56104 8.72017 4.21863 8.47836C4.21863 8.47836 4.14981 9.56551 5.05573 10.3658L5.78723 11.1035C5.56445 11.1219 5.31802 11.1175 5.14667 11.0425C5.14667 11.0425 5.29834 11.6864 5.88458 12.2018L6.90936 13.2317C6.29459 13.5898 5.21838 14.0378 3.80176 13.9234L10.0183 19.9966C12.1543 19.996 14.2902 19.8819 16.4229 19.6542C18.1287 19.4722 19.4759 18.1253 19.6579 16.4199C19.9111 14.0476 20.0235 11.6713 19.9959 9.29563Z" fill="url(#paint3_linear_23_93)"/>
<path d="M16.1985 6.14611C15.756 6.37753 15.0895 6.48447 14.8685 6.51529C14.8667 6.50461 14.8649 6.49439 14.863 6.48417C15.6142 6.01964 15.8442 5.14504 15.8442 5.14504C15.3789 5.41094 14.9689 5.55846 14.6601 5.64023C14.4864 5.68676 14.3447 5.71193 14.2428 5.72597C13.7746 5.24603 13.1209 4.94824 12.3974 4.94824C10.9737 4.94824 9.81937 6.10202 9.81937 7.52581C9.81937 7.57707 9.82074 7.62803 9.8241 7.67852C9.83096 7.80194 9.84668 7.92322 9.87094 8.04115C9.18185 8.03092 6.6945 7.81964 4.63334 5.42589C4.63334 5.42589 3.48556 7.42803 5.4152 8.79568C5.4152 8.79568 4.63334 8.77127 4.21829 8.47822C4.21829 8.47822 4.09622 10.4074 6.31868 11.0176C6.31868 11.0176 5.53727 11.2132 5.14619 11.0422C5.14619 11.0422 5.53712 12.7026 7.49102 12.825C7.49102 12.825 6.08964 14.1077 3.80127 13.9231C4.92676 14.6355 6.26115 15.0479 7.69182 15.0479C11.7145 15.0479 14.9756 11.7876 14.9756 7.76578C14.9756 7.71559 14.9752 7.6654 14.9741 7.61521C14.9752 7.58546 14.9756 7.55587 14.9756 7.52581C14.9756 7.50491 14.9752 7.48401 14.9749 7.46311C15.7186 6.96761 16.1985 6.14611 16.1985 6.14611Z" fill="white"/>
<defs>
<linearGradient id="paint0_linear_23_93" x1="6.64039" y1="2.81148" x2="11.6975" y2="13.6333" gradientUnits="userSpaceOnUse">
<stop stop-color="#00C3FF"/>
<stop offset="1" stop-color="#00B0ED"/>
</linearGradient>
<linearGradient id="paint1_linear_23_93" x1="14.2299" y1="12.2664" x2="-14.8248" y2="-3.32288" gradientUnits="userSpaceOnUse">
<stop stop-color="#00B0ED" stop-opacity="0"/>
<stop offset="1" stop-color="#00A2CE"/>
</linearGradient>
<linearGradient id="paint2_linear_23_93" x1="10.0001" y1="17.0822" x2="10.0001" y2="19.7028" gradientUnits="userSpaceOnUse">
<stop stop-color="#00B0ED" stop-opacity="0"/>
<stop offset="1" stop-color="#00A2CE"/>
</linearGradient>
<linearGradient id="paint3_linear_23_93" x1="19.1182" y1="18.8277" x2="9.3493" y2="9.05714" gradientUnits="userSpaceOnUse">
<stop stop-color="#00B0ED" stop-opacity="0"/>
<stop offset="1" stop-color="#00A2CE"/>
</linearGradient>
</defs>
</svg>
