<svg width="70" height="69" viewBox="0 0 70 69" fill="none" xmlns="http://www.w3.org/2000/svg">
<path d="M68.4776 27.9261C67.2446 20.4229 63.4674 16.7691 60.668 15.0502L60.2481 14.9855C60.2481 14.9855 54.4492 12.8722 49.6295 23.6898C53.4701 26.9189 54.1318 34.0435 52.6388 39.9291C50.6879 47.6043 41.9164 52.0188 41.9164 52.0188L39.3612 49.3794L31.6982 68.28H53.1539L50.5988 64.7042C50.5988 64.7042 59.1127 58.9164 62.8594 54.1479C66.6049 49.3794 70.5212 40.3564 68.4776 27.9261Z" fill="#5F2EEA"/>
<path d="M20.1199 46.74C4.28355 26.6479 27.9526 16.0061 27.9526 16.0061L29.9951 19.0715L37.4884 0H16.0314L18.926 3.57576C15.0096 5.19333 9.47688 10.6418 9.47688 10.6418C9.47688 10.6418 -1.591 21.8806 0.195047 37.9721C1.98354 54.0636 11.7744 55.1697 11.7744 55.1697L31.0157 54.6594C26.1629 54.3188 20.1199 46.74 20.1199 46.74Z" fill="#5F2EEA"/>
<path d="M38.3381 13.6231C32.8908 14.1334 30.3357 22.137 30.3357 22.137C26.4095 34.8335 23.3783 41.5736 21.8657 44.5511L21.6105 45.0822C25.0496 49.9398 28.7767 52.3265 32.8139 53.6608C35.5607 53.8647 39.6163 43.2509 39.6163 43.2509C43.0504 34.2829 44.7547 30.3103 47.7908 22.5631C48.2828 21.3227 50.6781 14.0552 56.0472 13.5779C52.4641 13.4631 42.7391 13.2104 38.3381 13.6231Z" fill="#5F2EEA"/>
</svg>
