<svg width="72" height="70" viewBox="0 0 72 70" fill="none" xmlns="http://www.w3.org/2000/svg">
<path d="M68.3106 41.2744C70.04 39.4681 72 37.4313 72 34.7283C72 32.0252 70.04 29.9884 68.3106 28.1821C67.3175 27.3067 66.5002 26.2502 65.9022 25.0691C65.6726 23.7007 65.703 22.3013 65.9919 20.9442C66.3121 18.5102 66.6836 15.7559 65.1592 13.655C63.6219 11.5285 60.8677 11.0288 58.4465 10.5933C57.0818 10.4567 55.7557 10.0611 54.5393 9.42754C53.5759 8.48367 52.8057 7.36102 52.2719 6.12243C51.0933 3.93184 49.761 1.4466 47.2373 0.62673C44.8033 -0.167521 42.3181 1.02385 40.1275 2.07432C38.905 2.78641 37.5566 3.25616 36.1562 3.45785C34.7559 3.25616 33.4075 2.78641 32.185 2.07432C29.9944 1.02385 27.5092 -0.167521 25.0752 0.62673C22.5515 1.4466 21.2192 3.93184 20.0407 6.12243C19.5068 7.36102 18.7366 8.48367 17.7732 9.42754C16.5607 10.0594 15.2391 10.455 13.8788 10.5933C11.4448 11.0288 8.69056 11.5285 7.1533 13.655C5.62885 15.7559 6.00036 18.5102 6.32062 20.9442C6.60949 22.3013 6.63992 23.7007 6.41029 25.0691C5.81233 26.2502 4.99499 27.3067 4.00192 28.1821C2.27251 29.9884 0.3125 32.0252 0.3125 34.7283C0.3125 37.4313 2.27251 39.4681 4.00192 41.2744C4.99499 42.1498 5.81233 43.2063 6.41029 44.3874C6.63992 45.7558 6.60949 47.1552 6.32062 48.5123C6.00036 50.9463 5.62885 53.7006 7.1533 55.8015C8.69056 57.9281 11.4448 58.4277 13.866 58.8632C15.2307 58.9998 16.5568 59.3954 17.7732 60.029C18.7325 60.9763 19.5021 62.0981 20.0407 63.3341C21.2192 65.5247 22.5515 68.0099 25.0752 68.8298C27.5092 69.624 29.9944 68.4327 32.185 67.3822C33.4075 66.6701 34.7559 66.2003 36.1562 65.9987C37.5566 66.2003 38.905 66.6701 40.1275 67.3822C41.8019 68.3383 43.6638 68.9196 45.5848 69.086C46.1457 69.0887 46.7035 69.0022 47.2373 68.8298C49.761 68.0099 51.0933 65.5247 52.2719 63.3341C52.8057 62.0955 53.5759 60.9728 54.5393 60.029C55.7518 59.3971 57.0734 59.0015 58.4337 58.8632C60.8677 58.4277 63.6219 57.9281 65.1592 55.8015C66.6836 53.7006 66.3121 50.9463 65.9919 48.5123C65.703 47.1552 65.6726 45.7558 65.9022 44.3874C66.5002 43.2063 67.3175 42.1498 68.3106 41.2744ZM65.5307 38.6226C64.1062 39.8849 62.9851 41.4526 62.2512 43.2088C61.7938 45.1181 61.772 47.1059 62.1872 49.0248C62.4306 50.831 62.674 52.6886 62.0462 53.5469C61.4185 54.4052 59.5482 54.751 57.7547 55.0841C55.8145 55.2837 53.9424 55.9092 52.2719 56.916C50.815 58.185 49.6558 59.7597 48.8771 61.5278C48.006 63.1547 47.1092 64.8329 46.046 65.1788C45.0852 65.4991 43.407 64.692 41.7929 63.9105C40.0661 62.9177 38.1414 62.3185 36.1562 62.1555C34.1711 62.3185 32.2464 62.9177 30.5196 63.9105C28.9055 64.692 27.2273 65.4862 26.2666 65.1788C25.2033 64.8329 24.3065 63.1547 23.4354 61.5278C22.6567 59.7597 21.4975 58.185 20.0407 56.916C18.3701 55.9092 16.498 55.2837 14.5578 55.0841C12.7643 54.751 10.894 54.418 10.2663 53.5469C9.63854 52.6757 9.88194 50.831 10.1253 49.0248C10.5405 47.1059 10.5187 45.1181 10.0613 43.2088C9.32739 41.4526 8.20634 39.8849 6.7818 38.6226C5.48794 37.2775 4.15565 35.8812 4.15565 34.7283C4.15565 33.5753 5.48794 32.179 6.7818 30.8339C8.20634 29.5716 9.32739 28.0039 10.0613 26.2477C10.5187 24.3384 10.5405 22.3507 10.1253 20.4317C9.88194 18.6255 9.63854 16.7679 10.2663 15.9096C10.894 15.0513 12.7643 14.7055 14.5578 14.3724C16.498 14.1728 18.3701 13.5473 20.0407 12.5405C21.4975 11.2715 22.6567 9.69685 23.4354 7.92871C24.3065 6.30178 25.2033 4.6236 26.2666 4.27772C27.2273 3.95746 28.9055 4.76452 30.5196 5.54596C32.2464 6.53876 34.1711 7.13804 36.1562 7.30099C38.1414 7.13804 40.0661 6.53876 41.7929 5.54596C43.407 4.76452 45.0852 3.97027 46.046 4.27772C47.1092 4.6236 48.006 6.30178 48.8771 7.92871C49.6558 9.69685 50.815 11.2715 52.2719 12.5405C53.9424 13.5473 55.8145 14.1728 57.7547 14.3724C59.5482 14.7055 61.4185 15.0385 62.0462 15.9096C62.674 16.7808 62.4306 18.6255 62.1872 20.4317C61.772 22.3507 61.7938 24.3384 62.2512 26.2477C62.9851 28.0039 64.1062 29.5716 65.5307 30.8339C66.8246 32.179 68.1569 33.5753 68.1569 34.7283C68.1569 35.8812 66.8246 37.2775 65.5307 38.6226ZM36.1562 9.49159C31.1649 9.49159 26.2857 10.9717 22.1355 13.7447C17.9854 16.5178 14.7507 20.4592 12.8406 25.0706C10.9305 29.682 10.4307 34.7563 11.4045 39.6517C12.3783 44.5471 14.7818 49.0439 18.3112 52.5733C21.8406 56.1027 26.3374 58.5062 31.2328 59.48C36.1283 60.4538 41.2025 59.954 45.8139 58.0439C50.4253 56.1338 54.3667 52.8991 57.1398 48.749C59.9128 44.5988 61.3929 39.7196 61.3929 34.7283C61.3841 28.0378 58.7224 21.6239 53.9915 16.893C49.2607 12.1621 42.8467 9.5004 36.1562 9.49159ZM47.4551 32.6658L42.7024 37.2007L43.7272 43.6956C43.7654 43.9311 43.7366 44.1726 43.6441 44.3926C43.5517 44.6126 43.3993 44.8021 43.2043 44.9397C43.0093 45.0772 42.7797 45.1572 42.5414 45.1705C42.3032 45.1839 42.066 45.13 41.8569 45.0151L36.0666 41.8893L30.2122 44.8742C29.9994 44.9833 29.7603 45.0307 29.5219 45.011C29.2835 44.9913 29.0555 44.9052 28.8635 44.7626C28.6715 44.6199 28.5233 44.4264 28.4357 44.2038C28.348 43.9813 28.3244 43.7387 28.3675 43.5034L29.5588 37.0341L24.9086 32.3839C24.7427 32.2142 24.6271 32.0017 24.5749 31.7701C24.5227 31.5385 24.5358 31.297 24.6129 31.0724C24.6899 30.8479 24.8279 30.6492 25.0113 30.4985C25.1947 30.3478 25.4164 30.251 25.6516 30.219L32.1722 29.3478L35.1442 23.4935C35.2515 23.278 35.4173 23.0971 35.6226 22.9716C35.828 22.846 36.0645 22.7808 36.3052 22.7835C36.5459 22.7862 36.7809 22.8566 36.9834 22.9867C37.1859 23.1168 37.3476 23.3013 37.4501 23.5191L40.2812 29.4503L46.7761 30.4752C47.0113 30.5135 47.2311 30.6166 47.4109 30.773C47.5906 30.9293 47.7232 31.1327 47.7937 31.3603C47.8643 31.5879 47.8699 31.8306 47.8101 32.0612C47.7503 32.2918 47.6274 32.5012 47.4551 32.6658Z" fill="#1265E1"/>
</svg>
