<svg width="20" height="20" viewBox="0 0 20 20" fill="none" xmlns="http://www.w3.org/2000/svg">
<path d="M19.6576 3.57648C19.4756 1.87123 18.1285 0.524177 16.4227 0.342332C12.1451 -0.114111 7.85492 -0.114111 3.57742 0.342332C1.87164 0.524329 0.524445 1.87123 0.342407 3.57648C-0.114136 7.85304 -0.114136 12.1424 0.342407 16.419C0.524445 18.1244 1.87164 19.4713 3.57727 19.6533C7.85477 20.1097 12.1451 20.1097 16.4227 19.6533C18.1285 19.4713 19.4756 18.1244 19.6576 16.419C20.1141 12.1424 20.1141 7.85319 19.6576 3.57648Z" fill="url(#paint0_radial_23_77)"/>
<path d="M18.5699 4.2996C18.4085 2.78643 17.2131 1.59118 15.6995 1.42963C11.9037 1.02476 8.09661 1.02476 4.30083 1.42963C2.78731 1.59118 1.59178 2.78643 1.43019 4.2996C1.02522 8.09449 1.02522 11.9007 1.43019 15.6954C1.59178 17.2087 2.78731 18.404 4.30083 18.5654C8.09661 18.9704 11.9037 18.9704 15.6993 18.5654C17.213 18.404 18.4085 17.2087 18.5699 15.6954C18.9751 11.9007 18.9751 8.09449 18.5699 4.2996Z" fill="url(#paint1_linear_23_77)"/>
<path d="M0.299316 16.0029C0.313049 16.1412 0.32724 16.2794 0.342041 16.4176C0.524078 18.1232 1.87128 19.4704 3.57706 19.6524C7.85455 20.1089 12.1449 20.1089 16.4224 19.6524C18.1281 19.4704 19.4752 18.1232 19.6572 16.4176C19.672 16.2794 19.6862 16.1412 19.7001 16.0029H0.299316Z" fill="url(#paint2_linear_23_77)"/>
<path d="M19.6575 16.42C19.9028 14.1221 20.016 11.8205 19.9977 9.51927L15.4262 4.94878C14.8551 4.29692 14.0209 3.89006 13.0407 3.85482C11.0248 3.7822 9.00258 3.78586 6.98644 3.85512C5.31195 3.91279 4.14099 5.03802 3.8407 6.69185C3.78775 6.98384 3.75601 7.27964 3.71436 7.57376V12.4222C3.7374 12.5793 3.77127 12.7357 3.7818 12.8937C3.84894 13.8997 4.26245 14.7613 4.92453 15.3442L9.57661 19.9951C11.8596 20.0111 14.1428 19.8976 16.4226 19.6543C18.1284 19.4723 19.4754 18.1254 19.6575 16.42Z" fill="url(#paint3_linear_23_77)"/>
<path d="M19.6575 16.4182C19.4756 18.1233 18.1281 19.4705 16.4226 19.6523C14.1431 19.8955 11.8595 20.0092 9.57673 19.9931L4.93164 15.3491C5.47012 15.8203 6.17203 16.1073 6.98655 16.1379C9.00224 16.2136 11.0249 16.2116 13.0406 16.139C14.8638 16.0731 16.183 14.7241 16.24 12.9013C16.3007 10.966 16.3007 9.02567 16.24 7.09036C16.214 6.24947 15.9188 5.50958 15.4293 4.94971L19.9979 9.51735C20.0159 11.8183 19.9027 14.1202 19.6575 16.4182Z" fill="url(#paint4_linear_23_77)"/>
<path d="M12.3602 7.83293C11.7746 7.19541 10.9343 6.79541 10.0003 6.79541C8.2312 6.79541 6.79688 8.22942 6.79688 9.99814C6.79688 10.9319 7.19696 11.772 7.83462 12.3575L15.2463 19.7676C15.6386 19.7334 16.0309 19.6954 16.4229 19.6536C18.1286 19.4716 19.4758 18.1247 19.6579 16.4193C19.6997 16.0274 19.7377 15.6352 19.7719 15.243L12.3602 7.83293Z" fill="url(#paint5_linear_23_77)"/>
<path d="M19.9613 12.1516L13.9964 6.18834C13.8572 6.00574 13.6379 5.88721 13.3906 5.88721C12.9698 5.88721 12.6284 6.22831 12.6284 6.64919C12.6284 6.89647 12.747 7.11568 12.9296 7.25481L19.8546 14.1782C19.9016 13.5029 19.9372 12.8273 19.9613 12.1516Z" fill="url(#paint6_linear_23_77)"/>
<path d="M3.71436 7.57371C3.75601 7.27959 3.78775 6.98379 3.8407 6.69181C4.14084 5.038 5.31195 3.91279 6.98644 3.85512C9.00258 3.78586 11.0248 3.7822 13.0407 3.85482C14.8632 3.92041 16.1831 5.26958 16.24 7.09226C16.3005 9.02767 16.3005 10.9678 16.24 12.9032C16.1831 14.7259 14.8636 16.0749 13.0408 16.1407C11.025 16.2134 9.00228 16.2153 6.9866 16.1396C5.16379 16.0711 3.90372 14.7189 3.7818 12.8935C3.77127 12.7356 3.7374 12.5791 3.71436 12.4219C3.71436 10.8058 3.71436 9.18968 3.71436 7.57371ZM10.0016 15.0605C10.9241 15.0605 11.8476 15.0881 12.7689 15.0541C14.2135 15.0005 15.102 14.1386 15.1357 12.6958C15.1775 10.8979 15.1775 9.09769 15.1357 7.29973C15.102 5.8572 14.2128 4.97515 12.7689 4.94449C10.9362 4.90574 9.10146 4.90605 7.26873 4.94449C5.83578 4.97454 4.94467 5.83874 4.90576 7.2654C4.85632 9.08595 4.85632 10.9097 4.90576 12.7302C4.94467 14.1567 5.83578 15.001 7.26888 15.0541C8.17861 15.0879 9.09063 15.0605 10.0016 15.0605Z" fill="url(#paint7_linear_23_77)"/>
<path d="M3.71436 7.57371C3.75601 7.27959 3.78775 6.98379 3.8407 6.69181C4.14084 5.038 5.31195 3.91279 6.98644 3.85512C9.00258 3.78586 11.0248 3.7822 13.0407 3.85482C14.8632 3.92041 16.1831 5.26958 16.24 7.09226C16.3005 9.02767 16.3005 10.9678 16.24 12.9032C16.1831 14.7259 14.8636 16.0749 13.0408 16.1407C11.025 16.2134 9.00228 16.2153 6.9866 16.1396C5.16379 16.0711 3.90372 14.7189 3.7818 12.8935C3.77127 12.7356 3.7374 12.5791 3.71436 12.4219C3.71436 10.8058 3.71436 9.18968 3.71436 7.57371ZM10.0016 15.0605C10.9241 15.0605 11.8476 15.0881 12.7689 15.0541C14.2135 15.0005 15.102 14.1386 15.1357 12.6958C15.1775 10.8979 15.1775 9.09769 15.1357 7.29973C15.102 5.8572 14.2128 4.97515 12.7689 4.94449C10.9362 4.90574 9.10146 4.90605 7.26873 4.94449C5.83578 4.97454 4.94467 5.83874 4.90576 7.2654C4.85632 9.08595 4.85632 10.9097 4.90576 12.7302C4.94467 14.1567 5.83578 15.001 7.26888 15.0541C8.17861 15.0879 9.09063 15.0605 10.0016 15.0605Z" fill="white"/>
<path d="M10.0003 6.7959C8.2312 6.7959 6.79688 8.22975 6.79688 9.99846C6.79688 11.7673 8.2312 13.2012 10.0003 13.2012C11.7696 13.2012 13.2037 11.7673 13.2037 9.99846C13.2037 8.22975 11.7696 6.7959 10.0003 6.7959ZM10.0003 12.0985C8.84018 12.0985 7.89978 11.1583 7.89978 9.99846C7.89978 8.83859 8.84018 7.8984 10.0003 7.8984C11.1604 7.8984 12.1008 8.83859 12.1008 9.99846C12.1008 11.1583 11.1604 12.0985 10.0003 12.0985Z" fill="white"/>
<path d="M14.1526 6.64789C14.1526 7.06871 13.8114 7.40988 13.3906 7.40988C12.9698 7.40988 12.6284 7.06871 12.6284 6.64789C12.6284 6.22692 12.9698 5.88574 13.3906 5.88574C13.8114 5.88574 14.1526 6.22692 14.1526 6.64789Z" fill="white"/>
<defs>
<radialGradient id="paint0_radial_23_77" cx="0" cy="0" r="1" gradientUnits="userSpaceOnUse" gradientTransform="translate(4.09989 17.4746) scale(22.0565 22.0516)">
<stop stop-color="#FAE100"/>
<stop offset="0.0544" stop-color="#FADC04"/>
<stop offset="0.1167" stop-color="#FBCE0E"/>
<stop offset="0.1829" stop-color="#FCB720"/>
<stop offset="0.2514" stop-color="#FE9838"/>
<stop offset="0.3054" stop-color="#FF7950"/>
<stop offset="0.4922" stop-color="#FF1C74"/>
<stop offset="1" stop-color="#6C1CD1"/>
</radialGradient>
<linearGradient id="paint1_linear_23_77" x1="7.67095" y1="8.68771" x2="-26.2076" y2="-10.3734" gradientUnits="userSpaceOnUse">
<stop stop-color="#A1B5D8" stop-opacity="0"/>
<stop offset="0.3094" stop-color="#90A2BD" stop-opacity="0.309804"/>
<stop offset="0.7554" stop-color="#7C8B9C" stop-opacity="0.756863"/>
<stop offset="1" stop-color="#748290"/>
</linearGradient>
<linearGradient id="paint2_linear_23_77" x1="9.99965" y1="17.6498" x2="9.99965" y2="20.7672" gradientUnits="userSpaceOnUse">
<stop stop-color="#FAE100" stop-opacity="0"/>
<stop offset="0.3068" stop-color="#FCA800" stop-opacity="0.305882"/>
<stop offset="0.6275" stop-color="#FE7300" stop-opacity="0.627451"/>
<stop offset="0.8685" stop-color="#FF5200" stop-opacity="0.866667"/>
<stop offset="1" stop-color="#FF4500"/>
</linearGradient>
<linearGradient id="paint3_linear_23_77" x1="8.8621" y1="8.83307" x2="3.91355" y2="3.8834" gradientUnits="userSpaceOnUse">
<stop stop-color="#833AB4" stop-opacity="0"/>
<stop offset="1" stop-color="#833AB4"/>
</linearGradient>
<linearGradient id="paint4_linear_23_77" x1="13.7069" y1="18.2875" x2="11.2374" y2="6.64334" gradientUnits="userSpaceOnUse">
<stop stop-color="#833AB4" stop-opacity="0"/>
<stop offset="1" stop-color="#833AB4"/>
</linearGradient>
<linearGradient id="paint5_linear_23_77" x1="14.6474" y1="14.6442" x2="4.72672" y2="4.7214" gradientUnits="userSpaceOnUse">
<stop stop-color="#833AB4" stop-opacity="0"/>
<stop offset="1" stop-color="#833AB4"/>
</linearGradient>
<linearGradient id="paint6_linear_23_77" x1="15.3832" y1="8.64122" x2="12.1027" y2="5.35995" gradientUnits="userSpaceOnUse">
<stop stop-color="#833AB4" stop-opacity="0"/>
<stop offset="1" stop-color="#833AB4"/>
</linearGradient>
<linearGradient id="paint7_linear_23_77" x1="13.9709" y1="6.05639" x2="5.88241" y2="14.1468" gradientUnits="userSpaceOnUse">
<stop stop-color="#833AB4"/>
<stop offset="0.0922" stop-color="#9C3495"/>
<stop offset="0.2927" stop-color="#DC2546"/>
<stop offset="0.392" stop-color="#FD1D1D"/>
<stop offset="0.5589" stop-color="#FC6831"/>
<stop offset="0.6887" stop-color="#FC9B40"/>
<stop offset="0.7521" stop-color="#FCAF45"/>
<stop offset="0.7806" stop-color="#FDB750"/>
<stop offset="0.8656" stop-color="#FECB6A"/>
<stop offset="0.9415" stop-color="#FFD87A"/>
<stop offset="1" stop-color="#FFDC80"/>
</linearGradient>
</defs>
</svg>
